<svg width="23" height="23" viewBox="0 0 23 23" fill="none" xmlns="http://www.w3.org/2000/svg">
<g clip-path="url(#clip0_22_181)">
<path d="M9.70069 5.52733C10.3961 5.05903 10.955 4.63973 11.5538 4.28852C12.5746 3.68934 13.645 3.56078 14.7845 4.00683C16.8482 4.82881 17.9649 6.34311 18.2459 8.51609C18.4003 9.71317 17.8984 10.7219 17.2458 11.649C16.5632 12.6259 15.7911 13.538 15.0796 14.4983C14.0971 15.8134 13.4187 17.2556 13.2411 18.9141C13.2057 19.2401 13.0027 19.5485 12.9019 19.8004C12.4404 19.9693 12.1256 19.9558 11.877 19.6105C11.7318 19.415 11.5521 19.2444 11.3995 19.0535C10.7323 18.2256 9.90559 17.5845 9.03187 16.9913C7.72573 16.1069 6.37447 15.2896 5.14247 14.3009C4.11889 13.4852 3.2899 12.4517 2.71574 11.2755C2.06909 9.9416 1.9659 8.52289 2.55617 7.09057C3.23238 5.44525 5.56778 3.76903 7.96305 4.47082C8.45283 4.61416 8.88639 4.95588 9.33529 5.22091C9.46651 5.31126 9.58885 5.41386 9.70069 5.52733ZM11.8854 17.5229C11.9521 17.44 12.0074 17.3484 12.0496 17.2507C12.5084 15.5576 13.4096 14.1151 14.5172 12.7735C15.1849 11.9644 15.8137 11.1191 16.3987 10.2451C17.3145 8.89528 17.0669 7.6728 16.1571 6.44991C15.8699 6.09578 15.5308 5.78715 15.1513 5.5345C14.419 5.00826 13.6112 4.91053 12.7514 5.2094C11.8698 5.51667 11.1146 5.98351 10.5453 6.74852C10.2269 7.1743 9.75795 7.18546 9.36023 6.83979C9.25458 6.74742 9.15949 6.64362 9.07671 6.53029C8.56186 5.83289 7.83322 5.66888 7.02629 5.69298C6.31996 5.71472 5.63368 5.93303 5.0446 6.32337C4.74928 6.50955 4.49909 6.75911 4.31216 7.05396C3.63754 8.20178 3.47094 9.42569 3.96496 10.6856C4.3966 11.8077 5.14563 12.7798 6.12058 13.4832C6.80354 13.9832 7.49489 14.4539 8.19754 14.9169C9.36974 15.688 10.5661 16.4201 11.5978 17.3844C11.6868 17.4436 11.7836 17.4902 11.8854 17.5229Z" fill="#FF0F82"/>
<path d="M11.8854 17.5229C11.7844 17.4892 11.6886 17.4417 11.6007 17.3817C10.569 16.4175 9.37259 15.6854 8.20039 14.9143C7.49488 14.4539 6.80439 13.9761 6.12057 13.4832C5.14533 12.7811 4.39551 11.8103 3.9626 10.6893C3.47008 9.43278 3.63518 8.20551 4.3098 7.0577C4.49673 6.76285 4.74692 6.51329 5.04224 6.3271C5.6316 5.93503 6.31878 5.71539 7.02629 5.69297C7.83321 5.66888 8.56521 5.83138 9.0767 6.53029C9.15949 6.64361 9.25457 6.74741 9.36022 6.83979C9.75795 7.18546 10.2269 7.1743 10.5453 6.74852C11.1146 5.9835 11.8731 5.51516 12.7514 5.2094C13.6112 4.91053 14.4189 5.00826 15.1513 5.5345C15.5308 5.78714 15.8699 6.09577 16.1571 6.4499C17.0669 7.6728 17.311 8.88744 16.3986 10.245C15.8122 11.1158 15.1849 11.9644 14.5171 12.7735C13.4096 14.1151 12.5064 15.5532 12.0496 17.2507C12.0074 17.3484 11.9521 17.44 11.8854 17.5229Z" fill="#FF0F82"/>
</g>
<defs>
<clipPath id="clip0_22_181">
<rect width="17" height="17" fill="white" transform="translate(0 6.9442) rotate(-24.1095)"/>
</clipPath>
</defs>
</svg>
